<!DOCTYPE svg PUBLIC "-//W3C//DTD SVG 1.1//EN" "http://www.w3.org/Graphics/SVG/1.1/DTD/svg11.dtd">
<!-- Uploaded to: SVG Repo, www.svgrepo.com, Transformed by: SVG Repo Mixer Tools -->
<svg fill="#000000" height="800px" width="800px" version="1.1" id="Layer_1" xmlns="http://www.w3.org/2000/svg" xmlns:xlink="http://www.w3.org/1999/xlink" viewBox="0 0 512 512" xml:space="preserve" stroke="#000000">
<g id="SVGRepo_bgCarrier" stroke-width="0"/>
<g id="SVGRepo_tracerCarrier" stroke-linecap="round" stroke-linejoin="round"/>
<g id="SVGRepo_iconCarrier"> <g> <g> <g> <path d="M160.338,176.382c4.401,0,7.967-3.567,7.967-7.967v-8.797c0-4.4-3.566-7.967-7.967-7.967 c-4.401,0-7.967,3.567-7.967,7.967v8.797C152.371,172.814,155.938,176.382,160.338,176.382z"/> <path d="M351.668,176.382c4.4,0,7.967-3.567,7.967-7.967v-8.797c0-4.4-3.567-7.967-7.967-7.967c-4.401,0-7.967,3.567-7.967,7.967 v8.797C343.701,172.814,347.267,176.382,351.668,176.382z"/> <path d="M161.495,236.11c-58.263,0-105.665,47.401-105.665,105.663s47.401,105.663,105.665,105.663 s105.663-47.401,105.663-105.663S219.759,236.11,161.495,236.11z M161.495,431.503c-49.477,0-89.73-40.253-89.73-89.729 c0-49.476,40.253-89.729,89.73-89.729c49.476,0,89.729,40.253,89.729,89.729C251.224,391.25,210.971,431.503,161.495,431.503z"/> <path d="M305.394,199.361c0-4.4-3.567-7.967-7.967-7.967c-4.401,0-7.967,3.567-7.967,7.967c0,7.027-5.717,12.745-12.745,12.745 c-7.026,0-12.744-5.717-12.744-12.745c0-4.4-3.566-7.967-7.967-7.967s-7.967,3.567-7.967,7.967 c0,7.027-5.717,12.745-12.744,12.745c-7.027,0-12.745-5.717-12.745-12.745c0-4.4-3.566-7.967-7.967-7.967 c-4.401,0-7.967,3.567-7.967,7.967c0,15.814,12.865,28.68,28.68,28.68c8.133,0,15.487-3.404,20.711-8.861 c5.225,5.458,12.578,8.861,20.711,8.861C292.529,228.041,305.394,215.175,305.394,199.361z"/> <path d="M355.395,298.662c-34.397,0-62.381,27.984-62.381,62.38c0,34.396,27.984,62.38,62.381,62.38 c34.396,0,62.38-27.984,62.38-62.38C417.775,326.646,389.79,298.662,355.395,298.662z M355.395,407.487 c-25.611,0-46.446-20.836-46.446-46.445s20.835-46.445,46.446-46.445c25.61,0,46.445,20.835,46.445,46.445 C401.839,386.652,381.004,407.487,355.395,407.487z"/> <path d="M437.019,74.981C388.667,26.628,324.38,0,256,0S123.333,26.628,74.98,74.981C26.629,123.333,0.001,187.62,0.001,256 s26.628,132.667,74.98,181.019C123.334,485.371,187.62,512,256,512s132.667-26.628,181.019-74.981 c48.352-48.352,74.98-112.639,74.98-181.019S485.371,123.333,437.019,74.981z M86.248,86.248 c26.323-26.323,57.69-45.765,91.914-57.456c0.232,2.744,0.356,5.5,0.356,8.254c0,53.47-43.501,96.973-96.973,96.973 c-10.162,0-20.084-1.551-29.608-4.608C61.575,113.94,73.04,99.456,86.248,86.248z M425.752,425.752 C380.408,471.094,320.123,496.065,256,496.065s-124.408-24.971-169.752-70.313C40.906,380.409,15.935,320.123,15.935,256 c0-39.883,9.665-78.278,27.879-112.519c12.083,4.292,24.743,6.473,37.732,6.473c62.258,0,112.908-50.65,112.908-112.908 c0-4.334-0.275-8.672-0.767-12.972c20.076-5.359,40.98-8.14,62.314-8.14c64.123,0,124.408,24.971,169.752,70.313 c45.342,45.342,70.313,105.628,70.313,169.752S471.094,380.409,425.752,425.752z"/> </g> </g> </g> </g>
</svg>