<!DOCTYPE svg PUBLIC "-//W3C//DTD SVG 1.1//EN" "http://www.w3.org/Graphics/SVG/1.1/DTD/svg11.dtd">
<!-- Uploaded to: SVG Repo, www.svgrepo.com, Transformed by: SVG Repo Mixer Tools -->
<svg fill="#000000" height="800px" width="800px" version="1.1" id="Layer_1" xmlns="http://www.w3.org/2000/svg" xmlns:xlink="http://www.w3.org/1999/xlink" viewBox="0 0 512 512" xml:space="preserve">
<g id="SVGRepo_bgCarrier" stroke-width="0"/>
<g id="SVGRepo_tracerCarrier" stroke-linecap="round" stroke-linejoin="round"/>
<g id="SVGRepo_iconCarrier"> <g> <g> <g> <path d="M501.883,238.478l-85.043-49.1l25.417-94.852c1.893-7.066-0.064-14.372-5.237-19.544 c-5.174-5.172-12.48-7.13-19.543-5.237l-94.853,25.417l-49.101-85.044C269.865,3.783,263.314,0,255.999,0 c-7.314,0-13.865,3.782-17.522,10.116l-49.099,85.044L94.525,69.744c-7.066-1.892-14.372,0.064-19.544,5.237 s-7.13,12.478-5.237,19.543l25.417,94.853l-85.043,49.1C3.782,242.135,0,248.686,0,256c0,7.314,3.782,13.865,10.117,17.522 l85.043,49.1l-25.415,94.853c-1.893,7.066,0.065,14.372,5.237,19.543c3.874,3.874,8.944,5.945,14.215,5.945 c1.766,0,3.555-0.233,5.328-0.707l94.853-25.417l49.1,85.043c3.658,6.335,10.208,10.116,17.522,10.116 c7.314,0,13.865-3.781,17.522-10.116l49.1-85.043l94.853,25.417c1.774,0.475,3.562,0.707,5.328,0.707 c5.271,0,10.342-2.07,14.215-5.945c5.172-5.172,7.13-12.479,5.237-19.543l-25.415-94.853l85.042-49.099 c6.335-3.658,10.117-10.208,10.117-17.522C512,248.686,508.218,242.135,501.883,238.478z M90.093,301.439l-72.07-41.61 c-1.995-1.152-2.211-3.062-2.211-3.83c0-0.767,0.216-2.677,2.211-3.83l72.07-41.61C86.122,225.042,83.99,240.276,83.99,256 C83.99,271.724,86.122,286.958,90.093,301.439z M421.567,85.017c2.226-0.598,3.728,0.602,4.271,1.144 c0.543,0.543,1.74,2.045,1.144,4.271l-21.555,80.444c-15.295-26.745-37.561-49.01-64.305-64.304L421.567,85.017z M252.171,18.023 c1.151-1.995,3.061-2.21,3.828-2.21c0.767,0,2.677,0.215,3.83,2.21l41.61,72.071c-14.481-3.971-29.715-6.103-45.439-6.103 s-30.958,2.132-45.439,6.103L252.171,18.023z M85.017,90.433c-0.597-2.226,0.601-3.729,1.144-4.271 c0.543-0.543,2.045-1.742,4.271-1.144l80.444,21.555c-26.745,15.295-49.01,37.561-64.304,64.305L85.017,90.433z M90.433,426.983 c-2.226,0.598-3.728-0.602-4.271-1.144c-0.543-0.543-1.74-2.045-1.144-4.271l21.555-80.444 c15.295,26.745,37.561,49.011,64.305,64.305L90.433,426.983z M259.829,493.978c-1.152,1.995-3.062,2.21-3.83,2.21 c-0.767,0-2.677-0.215-3.83-2.21l-41.61-72.071c14.481,3.971,29.715,6.103,45.439,6.103c15.724,0,30.958-2.133,45.439-6.103 L259.829,493.978z M255.999,412.199C169.872,412.199,99.8,342.129,99.8,256S169.872,99.802,255.999,99.802 s156.199,70.07,156.199,156.199S342.128,412.199,255.999,412.199z M426.982,421.568c0.597,2.226-0.601,3.729-1.144,4.271 c-0.543,0.543-2.046,1.742-4.271,1.144l-80.444-21.555c26.745-15.295,49.011-37.561,64.305-64.305L426.982,421.568z M493.977,259.83l-72.07,41.611c3.971-14.481,6.103-29.715,6.103-45.439c0-15.724-2.133-30.958-6.103-45.439l72.07,41.61 c1.995,1.152,2.211,3.062,2.211,3.83C496.188,256.768,495.972,258.677,493.977,259.83z"/> <path d="M297.102,261.905c-4.366,0-7.906,3.54-7.906,7.906c0,6.973-5.672,12.646-12.645,12.646 c-6.973,0-12.646-5.673-12.646-12.646c0-4.366-3.54-7.906-7.906-7.906c-4.366,0-7.906,3.54-7.906,7.906 c0,6.973-5.673,12.646-12.646,12.646s-12.645-5.673-12.645-12.646c0-4.366-3.54-7.906-7.906-7.906s-7.906,3.54-7.906,7.906 c0,15.691,12.765,28.458,28.457,28.458c8.071,0,15.368-3.377,20.552-8.792c5.184,5.416,12.481,8.792,20.552,8.792 c15.691,0,28.457-12.766,28.457-28.458C305.008,265.445,301.468,261.905,297.102,261.905z"/> <path d="M350.924,222.469c-4.366,0-7.906,3.54-7.906,7.906v8.729c0,4.366,3.54,7.906,7.906,7.906s7.906-3.54,7.906-7.906v-8.729 C358.829,226.009,355.29,222.469,350.924,222.469z"/> <path d="M161.076,222.469c-4.366,0-7.906,3.54-7.906,7.906v8.729c0,4.366,3.54,7.906,7.906,7.906c4.366,0,7.906-3.54,7.906-7.906 v-8.729C168.982,226.009,165.443,222.469,161.076,222.469z"/> </g> </g> </g> </g>
</svg>